HIERARCHY
ROOT root
{
	OFFSET 0.000000 0.000000 0.000000
	CHANNELS 6 Xposition Yposition Zposition Zrotation Yrotation Xrotation
	JOINT lhip
	{
		OFFSET 0.058581 -0.082280 -0.017664
		CHANNELS 3 Zrotation Yrotation Xrotation
		JOINT lknee
		{
			OFFSET 0.043451 -0.386469 0.008037
			CHANNELS 3 Zrotation Yrotation Xrotation
			JOINT lankle
			{
				OFFSET -0.014790 -0.426874 -0.037428
				CHANNELS 3 Zrotation Yrotation Xrotation
				JOINT ltoe
				{
					OFFSET 0.041054 -0.060286 0.122042
					CHANNELS 3 Zrotation Yrotation Xrotation
					End Site
					{
						OFFSET 0.000000 0.000000 0.000000
					}
				}
			}
		}
	}
	JOINT rhip
	{
		OFFSET -0.060310 -0.090513 -0.013543
		CHANNELS 3 Zrotation Yrotation Xrotation
		JOINT rknee
		{
			OFFSET -0.043257 -0.383688 -0.004843
			CHANNELS 3 Zrotation Yrotation Xrotation
			JOINT rankle
			{
				OFFSET 0.019056 -0.420046 -0.034562
				CHANNELS 3 Zrotation Yrotation Xrotation
				JOINT rtoe
				{
					OFFSET -0.034840 -0.062106 0.130323
					CHANNELS 3 Zrotation Yrotation Xrotation
					End Site
					{
						OFFSET 0.000000 0.000000 0.000000
					}
				}
			}
		}
	}
	JOINT lowerback
	{
		OFFSET 0.004439 0.124404 -0.038385
		CHANNELS 3 Zrotation Yrotation Xrotation
		JOINT upperback
		{
			OFFSET 0.004488 0.137956 0.026820
			CHANNELS 3 Zrotation Yrotation Xrotation
			JOINT chest
			{
				OFFSET -0.002265 0.056032 0.002855
				CHANNELS 3 Zrotation Yrotation Xrotation
				JOINT lowerneck
				{
					OFFSET -0.013390 0.211636 -0.033468
					CHANNELS 3 Zrotation Yrotation Xrotation
					JOINT upperneck
					{
						OFFSET 0.010113 0.088937 0.050410
						CHANNELS 3 Zrotation Yrotation Xrotation
						End Site
						{
							OFFSET 0.000000 0.000000 0.000000
						}
					}
				}
				JOINT lclavicle
				{
					OFFSET 0.071702 0.114000 -0.018898
					CHANNELS 3 Zrotation Yrotation Xrotation
					JOINT lshoulder
					{
						OFFSET 0.122921 0.045205 -0.019046
						CHANNELS 3 Zrotation Yrotation Xrotation
						JOINT lelbow
						{
							OFFSET 0.255332 -0.015649 -0.022946
							CHANNELS 3 Zrotation Yrotation Xrotation
							JOINT lwrist
							{
								OFFSET 0.265709 0.012698 -0.007375
								CHANNELS 3 Zrotation Yrotation Xrotation
								End Site
								{
									OFFSET 0.000000 0.000000 0.000000
								}
							}
						}
					}
				}
				JOINT rclavicle
				{
					OFFSET -0.082954 0.112472 -0.023707
					CHANNELS 3 Zrotation Yrotation Xrotation
					JOINT rshoulder
					{
						OFFSET -0.113228 0.046853 -0.008472
						CHANNELS 3 Zrotation Yrotation Xrotation
						JOINT relbow
						{
							OFFSET -0.260127 -0.014369 -0.031269
							CHANNELS 3 Zrotation Yrotation Xrotation
							JOINT rwrist
							{
								OFFSET -0.269108 0.006794 -0.006027
								CHANNELS 3 Zrotation Yrotation Xrotation
								End Site
								{
									OFFSET 0.000000 0.000000 0.000000
								}
							}
						}
					}
				}
			}
		}
	}
}
MOTION
Frames: 11
Frame Time: 0.033333
1.797878 0.761799 0.750307 -88.508773 1.977545 114.820035 15.247123 -4.699608 -71.940353 -11.304220 13.068518 82.804688 6.100099 12.947710 -44.147442 0.000000 -0.000000 0.000000 -8.774735 7.361798 -71.245403 2.041770 -13.148777 83.344565 3.435919 -12.393934 -43.582396 0.000000 -0.000000 0.000000 -1.588305 -0.447440 40.255302 2.919082 1.090911 -7.207248 0.143559 -2.102418 4.331462 1.833522 1.958285 -21.019019 3.170536 -8.837502 -11.660914 -25.270321 7.144096 10.005388 -58.035875 12.641241 3.854489 3.783970 -29.521510 10.271565 5.324921 -7.610554 -5.701901 23.203071 -2.335937 7.964183 59.883050 -10.487660 6.350075 -7.391047 17.346728 5.058378 8.085458 2.323235 -4.797232 
1.780970 0.762976 0.734158 -88.836871 1.848320 114.783916 15.523522 -5.043553 -72.367479 -10.692252 13.864210 87.048573 5.672708 12.800326 -45.674250 0.000000 -0.000000 0.000000 -8.896763 7.541307 -71.204462 1.635400 -13.244871 87.058230 3.585014 -11.955148 -45.591956 0.000000 -0.000000 0.000000 -2.077799 0.025061 41.364028 2.937367 0.734208 -8.151368 0.593933 -2.163696 3.667654 1.492372 1.860714 -22.612454 3.830196 -7.744920 -10.223057 -28.364233 1.912195 9.223814 -57.254306 7.126228 5.675428 7.276603 -27.882028 5.034055 9.864373 -7.765983 -6.181661 25.618973 2.580761 7.718626 57.514773 -4.060456 8.654925 -7.583826 17.001585 3.255491 4.192577 2.942398 -6.743466 
1.760704 0.764833 0.725524 -89.362175 2.029783 114.440140 15.487872 -5.819571 -70.697648 -10.720189 13.875613 89.478456 5.038055 13.042761 -47.871990 0.000000 -0.000000 0.000000 -8.275902 8.578367 -70.072022 1.498984 -12.690345 89.837160 4.237038 -12.230136 -46.787179 0.000000 -0.000000 0.000000 -2.812169 0.443104 40.611437 3.152570 0.333468 -7.506373 0.939702 -2.072248 2.904714 1.290724 2.584145 -24.191043 4.125577 -5.901806 -9.152979 -31.883307 -4.462636 8.381498 -54.272867 0.295603 7.721967 11.230183 -25.641842 -1.085630 13.404902 -8.402176 -7.345848 29.371208 8.252444 7.207714 52.537917 4.315903 10.614193 -8.272954 15.205930 1.854581 2.672510 2.912580 -7.163440 
1.735349 0.765548 0.725289 -89.933398 2.087499 112.902941 14.203713 -7.699964 -66.382556 -10.268272 12.709292 90.689662 3.967438 13.519994 -49.148254 0.000000 -0.000000 0.000000 -7.513597 10.011022 -66.114069 1.110254 -11.770233 91.077799 5.161233 -11.474721 -46.483186 0.000000 -0.000000 0.000000 -3.197874 0.706217 40.570471 3.203221 -0.456065 -7.468524 0.898916 -2.002744 2.539280 2.226490 2.528719 -23.936642 3.168014 -7.348113 -7.008796 -32.947610 -11.034074 6.728165 -51.548704 -7.813034 9.217208 14.463632 -23.288583 -7.133088 14.172151 -7.830609 -7.182137 31.869715 13.916553 6.794823 48.026219 13.293784 11.251729 -10.494502 15.886581 -1.207920 0.268399 2.631968 -5.778519 
1.708066 0.766672 0.732940 -90.534851 2.089253 111.445623 12.336250 -9.444378 -61.338437 -9.981679 11.013867 90.378440 2.397567 13.112536 -48.484826 0.000000 -0.000000 0.000000 -5.329677 11.327716 -61.072398 0.167679 -9.745684 90.631542 5.481484 -11.369561 -45.739964 0.000000 -0.000000 0.000000 -3.592095 1.541020 38.819759 3.433295 -1.436338 -6.810719 1.381769 -1.705810 2.229778 1.363350 3.099311 -23.942091 3.673261 -6.621492 -5.588586 -30.423559 -17.938065 5.659201 -50.741410 -15.609487 9.132013 19.138554 -25.816409 -12.198322 13.484045 -6.906273 -8.417573 29.631972 19.028806 5.210025 47.315757 20.518668 9.912847 -15.465372 21.267944 -7.412988 -0.603357 2.190960 -10.484430 
1.668223 0.766256 0.751113 -90.914639 1.752112 109.294564 8.234705 -9.972034 -52.458786 -9.175094 8.426351 87.115113 2.424184 13.624262 -47.966836 0.000000 -0.000000 0.000000 -2.909594 10.392018 -52.876554 -0.368911 -7.957444 87.790210 5.882072 -10.518812 -44.090448 0.000000 -0.000000 0.000000 -3.570676 1.859659 37.692175 3.329771 -2.238430 -7.343255 1.582324 -1.970868 1.781515 1.491783 3.402307 -24.034925 2.868058 -6.127357 -3.807663 -25.606504 -21.806020 2.708490 -49.429383 -20.974248 9.903188 22.146416 -34.131518 -13.244765 12.180170 -7.750528 -10.845252 25.177493 22.259174 0.995255 48.607479 23.520874 11.297680 -23.117331 33.494152 -14.177336 7.926514 5.120854 -17.227811 
1.618545 0.768100 0.779327 -90.556351 2.162456 107.610510 5.712712 -9.083867 -42.951900 -9.551489 5.510601 81.787968 2.025324 13.054813 -44.061414 0.000000 -0.000000 0.000000 -0.142572 9.255854 -43.919739 0.114321 -6.448220 82.442285 6.198440 -9.540685 -39.050565 0.000000 -0.000000 0.000000 -2.957540 1.231494 34.637746 3.319532 -2.907817 -8.400652 1.634718 -1.759734 2.043498 1.159615 4.628523 -22.782970 2.084624 -6.310628 -1.642639 -18.755552 -23.717663 0.281061 -47.922431 -23.849544 9.651617 25.684159 -46.916878 -13.178695 13.125051 -8.018637 -12.016814 18.467838 23.080624 -3.253606 51.317555 24.607897 13.137938 -32.837018 47.530892 -18.254994 3.846671 5.496385 -16.007173 
1.553717 0.772309 0.820854 -90.622058 2.614397 106.265901 4.064486 -6.332870 -32.318734 -9.627405 2.294738 73.838472 2.478168 10.917592 -35.004787 0.000000 -0.000000 0.000000 2.790715 6.692338 -33.723377 0.337076 -4.097385 74.198972 5.626869 -7.524294 -29.753847 0.000000 -0.000000 0.000000 -2.758312 1.170594 28.394019 3.437254 -3.456980 -7.902579 1.594819 -1.691459 2.176533 1.817749 6.783537 -19.043323 1.422577 -5.607417 -0.876824 -11.419717 -23.177695 -2.509360 -48.065185 -24.544385 9.396000 27.265605 -57.965574 -11.223295 14.890001 -7.976007 -14.139252 11.578958 21.580848 -7.130919 54.972706 23.161083 15.049802 -45.010844 59.030324 -23.536604 1.442346 5.653008 -14.646073 
1.467614 0.772120 0.880175 -91.599797 2.008990 101.727390 1.918958 -3.402918 -15.536411 -10.374657 -0.869825 60.213117 0.043026 8.005514 -20.295100 0.000000 -0.000000 0.000000 2.355374 3.038768 -17.955568 1.467999 -1.859647 61.105416 5.775205 -3.476518 -14.293335 0.000000 -0.000000 0.000000 -3.641746 2.679547 22.073074 3.217046 -4.425836 -4.261642 1.688756 -1.622553 1.702704 2.782606 5.034003 -10.425719 1.818980 -3.864161 0.069800 -5.703049 -21.246778 -2.934282 -51.101172 -24.590920 10.139356 29.616144 -64.450242 -9.978811 13.845752 -9.175747 -16.133961 6.139526 18.536020 -7.561183 59.933873 20.162681 15.486230 -59.372995 65.451866 -35.560028 1.118711 6.611527 -17.302683 
1.373520 0.768784 0.950066 -90.578622 1.683735 98.622530 1.492616 -2.990051 -2.076674 -6.945194 -2.623964 44.160937 -7.643041 4.266985 5.413517 0.000000 -0.000000 0.000000 -0.040382 -1.252936 -5.016842 0.189114 -3.273006 45.648500 10.062188 1.348110 12.438115 0.000000 -0.000000 0.000000 -3.500788 2.356841 13.241397 2.669987 -5.676919 -0.139421 1.852490 -1.062529 0.942835 0.232002 0.903058 1.957542 4.827773 -1.093084 2.266976 -5.331081 -19.178111 0.209230 -55.426469 -23.920904 10.023339 30.193906 -66.853846 -11.546641 11.548068 -10.948428 -13.523948 3.967901 15.739579 -4.122136 62.902980 15.233015 13.862884 -67.840553 70.258316 -45.311616 1.119115 6.658814 -17.163794 
1.284063 0.770655 1.019637 -90.704367 2.225397 97.691153 2.436001 -1.103506 2.801804 -2.113147 -1.037296 34.663324 -14.861707 5.217683 28.372514 0.000000 -0.000000 0.000000 0.278053 -3.598411 1.377894 -3.306893 -5.019857 34.113799 12.115801 -1.335692 39.352437 0.000000 -0.000000 0.000000 -3.865288 2.067308 5.422948 2.780688 -6.158133 2.324317 2.806024 -0.293684 -1.453891 -4.642600 -2.770693 17.698323 6.411436 6.262515 -1.704922 -7.774511 -15.274896 4.637192 -57.945419 -22.210547 9.356233 20.852482 -69.589124 -1.385528 8.310175 -9.054270 -12.067402 4.193660 11.498517 1.800949 62.881616 12.431889 12.173314 -61.226909 76.578929 -37.699739 -0.483863 6.280342 -17.334824 
